<svg width="20" height="20" viewBox="0 0 20 20" fill="none" xmlns="http://www.w3.org/2000/svg">
<path d="M7.09717 6.76888C8.37961 6.6631 9.29915 5.28727 9.15145 3.69584C9.00342 2.10452 7.8441 0.90056 6.56195 1.00649C5.27952 1.11289 4.36001 2.48843 4.50774 4.07985C4.65574 5.67119 5.81506 6.87514 7.09717 6.76888Z" fill="#E4002A"/>
<path d="M4.01402 10.774C5.11258 10.1742 5.32526 8.58319 4.4891 7.21929C3.6529 5.85601 2.08435 5.23695 0.985534 5.83625C-0.112771 6.43633 -0.325307 8.02757 0.510881 9.39118C1.34711 10.7544 2.91547 11.3735 4.01402 10.774Z" fill="#E4002A"/>
<path d="M12.9079 6.78387C14.1897 6.89687 15.3557 5.69889 15.513 4.10852C15.6698 2.51734 14.7584 1.13694 13.4765 1.02403C12.195 0.911532 11.0287 2.10991 10.8716 3.70022C10.7147 5.29114 11.6264 6.6714 12.9079 6.78387Z" fill="#E4002A"/>
<path d="M19.0248 5.88284C17.9297 5.27782 16.3576 5.88854 15.5135 7.24753C14.6694 8.60716 14.873 10.1993 15.9682 10.8047C17.0631 11.4098 18.6353 10.799 19.4794 9.43974C20.3232 8.08055 20.1198 6.48826 19.0248 5.88284Z" fill="#E4002A"/>
<path d="M12.4177 9.00902C11.8905 8.2527 10.9958 7.74587 9.96689 7.74311C8.93823 7.74053 8.04061 8.24287 7.50905 8.99607C6.92164 9.82883 6.70149 10.6748 6.12781 11.2556C5.55421 11.8364 3.17738 11.9125 2.99357 14.5692C2.8638 16.4456 4.5996 17.9779 6.59266 17.983C8.10753 17.9869 9.05876 17.4912 9.93886 17.4932C10.8189 17.4954 11.7673 17.9961 13.282 18C15.2751 18.0051 17.0198 16.482 16.9008 14.6049C16.7326 11.9473 14.356 11.859 13.7856 11.2753C13.2155 10.6917 13.0003 9.84446 12.4177 9.00902Z" fill="#E4002A"/>
</svg>
