<svg width="30" height="30" viewBox="0 0 30 30" fill="none" xmlns="http://www.w3.org/2000/svg">
<path fill-rule="evenodd" clip-rule="evenodd" d="M10.6604 21.0326C10.6683 22.1416 10.023 23.1458 9.02632 23.576C8.02961 24.006 6.87842 23.7767 6.11102 22.9953C5.34363 22.2141 5.11168 21.0351 5.52363 20.0097C5.93558 18.9842 6.91003 18.3151 7.99133 18.3151C8.69663 18.3125 9.37406 18.5972 9.87461 19.1068C10.3752 19.6165 10.6578 20.3092 10.6604 21.0326Z" stroke="#E4002A" stroke-width="2" stroke-linecap="round" stroke-linejoin="round"/>
<path fill-rule="evenodd" clip-rule="evenodd" d="M23.3772 21.0326C23.3851 22.1416 22.7398 23.1458 21.7431 23.576C20.7465 24.006 19.5952 23.7767 18.8278 22.9953C18.0605 22.2141 17.8285 21.0351 18.2405 20.0097C18.6523 18.9842 19.6268 18.3151 20.7081 18.3151C21.4135 18.3125 22.0908 18.5972 22.5913 19.1068C23.092 19.6165 23.3746 20.3092 23.3772 21.0326Z" stroke="#E4002A" stroke-width="2" stroke-linecap="round" stroke-linejoin="round"/>
<path d="M5.5 21H5C3.89543 21 3 20.1046 3 19V8.5C3 7.39543 3.89543 6.5 5 6.5H15.5C16.6046 6.5 17.5 7.39543 17.5 8.5V8.5M10.5 21H17.5V14M23.5 21V21C25.2844 21 26.5996 19.3318 26.1832 17.5966L25.32 14M17.5 8.5H22.4232C23.348 8.5 24.1522 9.13401 24.368 10.0333L25.32 14M17.5 8.5V14M17.5 14H25.32" stroke="#E4002A" stroke-width="2"/>
<path opacity="0.5" d="M7 11H13M7 15H13" stroke="#E4002A" stroke-width="2" stroke-linecap="round"/>
</svg>
