<svg width="32" height="32" viewBox="0 0 32 32" fill="none" xmlns="http://www.w3.org/2000/svg">
<path fill-rule="evenodd" clip-rule="evenodd" d="M12.6604 23.0329C12.6683 24.1419 12.023 25.1462 11.0263 25.5763C10.0296 26.0063 8.87842 25.7771 8.11102 24.9957C7.34363 24.2144 7.11168 23.0354 7.52363 22.0101C7.93558 20.9846 8.91003 20.3154 9.99133 20.3154C10.6966 20.3128 11.3741 20.5976 11.8746 21.1072C12.3752 21.6168 12.6578 22.3096 12.6604 23.0329Z" stroke="#E4002A" stroke-width="2" stroke-linecap="round" stroke-linejoin="round"/>
<path d="M8 21H7C5.89543 21 5 20.1046 5 19V10C5 8.34315 6.34315 7 8 7H18C21.866 7 25 10.134 25 14V21H22.5H12" stroke="#E4002A" stroke-width="2" stroke-linecap="round"/>
<path opacity="0.5" d="M21 22V14C21 13.4477 20.5523 13 20 13H16C15.4477 13 15 13.4477 15 14V22" stroke="#E4002A" stroke-width="2"/>
<path opacity="0.4" d="M25.5 21H30" stroke="#E4002A" stroke-width="2"/>
</svg>
