<svg width="36" height="36" viewBox="0 0 36 36" fill="none" xmlns="http://www.w3.org/2000/svg">
<path d="M18 33C26.2842 33 33 26.2842 33 18C33 9.71572 26.2842 3 18 3C9.71572 3 3 9.71572 3 18C3 20.3995 3.56343 22.6674 4.56519 24.6787C4.83141 25.2132 4.92001 25.8241 4.76568 26.4009L3.87227 29.74C3.48443 31.1895 4.81051 32.5155 6.26002 32.1277L9.59908 31.2343C10.1759 31.08 10.7868 31.1686 11.3213 31.4347C13.3326 32.4366 15.6004 33 18 33Z" stroke="#E4002A" stroke-width="2"/>
<path opacity="0.5" d="M13.5 18.12L16.5 21L22.5 15" stroke="#E4002A" stroke-width="2" stroke-linecap="round" stroke-linejoin="round"/>
</svg>
