<svg width="36" height="36" viewBox="0 0 36 36" fill="none" xmlns="http://www.w3.org/2000/svg">
<path fill-rule="evenodd" clip-rule="evenodd" d="M13.6182 24.3492C13.6271 25.5968 12.9012 26.7266 11.7799 27.2105C10.6586 27.6942 9.36347 27.4363 8.50014 26.5573C7.63683 25.6784 7.37589 24.352 7.83933 23.1985C8.30278 22.0448 9.39903 21.292 10.6155 21.292C11.409 21.2891 12.1711 21.6094 12.7342 22.1827C13.2973 22.7561 13.6153 23.5354 13.6182 24.3492Z" stroke="#E4002A" stroke-width="2" stroke-linecap="round" stroke-linejoin="round"/>
<path fill-rule="evenodd" clip-rule="evenodd" d="M27.9241 24.3492C27.933 25.5968 27.2071 26.7266 26.0857 27.2105C24.9645 27.6942 23.6694 27.4363 22.8061 26.5573C21.9428 25.6784 21.6818 24.352 22.1453 23.1985C22.6086 22.0448 23.7049 21.292 24.9213 21.292C25.7149 21.2891 26.4769 21.6094 27.04 22.1827C27.6032 22.7561 27.9212 23.5354 27.9241 24.3492Z" stroke="#E4002A" stroke-width="2" stroke-linecap="round" stroke-linejoin="round"/>
<path d="M7.8125 24.3125H7C5.89543 24.3125 5 23.4171 5 22.3125V10C5 8.89543 5.89543 8 7 8H19.3125C20.4171 8 21.3125 8.89543 21.3125 10V10.25M13.4375 24.3125H21.3125V16.4375M28.0625 24.3125V24.3125C30.07 24.3125 31.5496 22.4358 31.0811 20.4837L30.11 16.4375M21.3125 10.25H27.0482C27.973 10.25 28.7772 10.884 28.993 11.7833L30.11 16.4375M21.3125 10.25V16.4375M21.3125 16.4375H30.11" stroke="#E4002A" stroke-width="2"/>
<path opacity="0.5" d="M9.5 13.0625H16.25M9.5 17.5625H16.25" stroke="#E4002A" stroke-width="2" stroke-linecap="round"/>
</svg>
