<svg width="36" height="36" viewBox="0 0 36 36" fill="none" xmlns="http://www.w3.org/2000/svg">
<path d="M3 15C3 10.7574 3 8.63604 4.31802 7.31802C5.63604 6 7.75735 6 12 6H19.5C23.7426 6 25.8639 6 27.1819 7.31802C28.5 8.63604 28.5 10.7574 28.5 15C28.5 19.2426 28.5 21.3639 27.1819 22.6819C25.8639 24 23.7426 24 19.5 24H12C7.75735 24 5.63604 24 4.31802 22.6819C3 21.3639 3 19.2426 3 15Z" stroke="#E4002A" stroke-width="2"/>
<path opacity="0.5" d="M28.5006 10.6143C29.9632 10.7581 30.9477 11.0833 31.6825 11.8181C33.0006 13.1361 33.0006 15.2574 33.0006 19.5002C33.0006 23.7428 33.0006 25.8641 31.6825 27.1821C30.3645 28.5002 28.2432 28.5002 24.0006 28.5002H16.5006C12.2579 28.5002 10.1366 28.5002 8.81859 27.1821C8.08375 26.4473 7.75861 25.4627 7.61475 24" stroke="#E4002A" stroke-width="2"/>
<path d="M19.5 15C19.5 17.071 17.821 18.75 15.75 18.75C13.6789 18.75 12 17.071 12 15C12 12.9289 13.6789 11.25 15.75 11.25C17.821 11.25 19.5 12.9289 19.5 15Z" stroke="#E4002A" stroke-width="2"/>
<path opacity="0.5" d="M24 18V12" stroke="#E4002A" stroke-width="2" stroke-linecap="round"/>
<path opacity="0.5" d="M7.5 18V12" stroke="#E4002A" stroke-width="2" stroke-linecap="round"/>
</svg>
