<svg width="36" height="36" viewBox="0 0 36 36" fill="none" xmlns="http://www.w3.org/2000/svg">
<path d="M10 21V19C10 17.3431 8.65685 16 7 16C5.34315 16 4 17.3431 4 19V21C4 22.6569 5.34315 24 7 24C8.65685 24 10 22.6569 10 21Z" stroke="#E4002A" stroke-width="2" stroke-linecap="round" stroke-linejoin="round"/>
<path d="M19 28H17C15.8954 28 15 28.8954 15 30C15 31.1046 15.8954 32 17 32H19C20.1046 32 21 31.1046 21 30C21 28.8954 20.1046 28 19 28Z" stroke="#E4002A" stroke-width="2" stroke-linecap="round" stroke-linejoin="round"/>
<path opacity="0.5" d="M7 16V14C7 8.47715 11.4772 4 17 4H19C24.5228 4 29 8.47715 29 14V16" stroke="#E4002A" stroke-width="2" stroke-linecap="round" stroke-linejoin="round"/>
<path d="M32 21V19C32 17.3431 30.6569 16 29 16C27.3431 16 26 17.3431 26 19V21C26 22.6569 27.3431 24 29 24C30.6569 24 32 22.6569 32 21Z" stroke="#E4002A" stroke-width="2" stroke-linecap="round" stroke-linejoin="round"/>
<path opacity="0.5" d="M21 30H23C26.3137 30 29 27.3137 29 24" stroke="#E4002A" stroke-width="2" stroke-linecap="round" stroke-linejoin="round"/>
</svg>
