<svg width="36" height="36" viewBox="0 0 36 36" fill="none" xmlns="http://www.w3.org/2000/svg">
<path d="M7.5 12C9.98528 12 12 9.98528 12 7.5C12 5.01472 9.98528 3 7.5 3C5.01472 3 3 5.01472 3 7.5C3 9.98528 5.01472 12 7.5 12Z" stroke="#E4002A" stroke-width="2"/>
<path d="M28.5 33C30.9853 33 33 30.9853 33 28.5C33 26.0147 30.9853 24 28.5 24C26.0147 24 24 26.0147 24 28.5C24 30.9853 26.0147 33 28.5 33Z" stroke="#E4002A" stroke-width="2"/>
<path opacity="0.5" d="M16.0662 6.5C15.514 6.5 15.0662 6.94772 15.0662 7.5C15.0662 8.05228 15.514 8.5 16.0662 8.5V6.5ZM26.1729 13.0081L26.7215 13.8442V13.8442L26.1729 13.0081ZM10.9596 22.9919L10.411 22.1558H10.411L10.9596 22.9919ZM18.2733 25.2929C17.8828 24.9024 17.2497 24.9024 16.8591 25.2929C16.4686 25.6834 16.4686 26.3166 16.8591 26.7071L18.2733 25.2929ZM20.0662 28.5L20.7733 29.2071C21.1639 28.8166 21.1639 28.1834 20.7733 27.7929L20.0662 28.5ZM16.8591 30.2929C16.4686 30.6834 16.4686 31.3166 16.8591 31.7071C17.2497 32.0976 17.8828 32.0976 18.2733 31.7071L16.8591 30.2929ZM16.0662 8.5H24.5269V6.5H16.0662V8.5ZM25.6242 12.1721L10.411 22.1558L11.5083 23.8279L26.7215 13.8442L25.6242 12.1721ZM12.6056 29.5H19.5662V27.5H12.6056V29.5ZM10.411 22.1558C7.08965 24.3354 8.63293 29.5 12.6056 29.5V27.5C10.6193 27.5 9.84761 24.9177 11.5083 23.8279L10.411 22.1558ZM24.5269 8.5C26.5132 8.5 27.2849 11.0823 25.6242 12.1721L26.7215 13.8442C30.0429 11.6646 28.4995 6.5 24.5269 6.5V8.5ZM16.8591 26.7071L19.3591 29.2071L20.7733 27.7929L18.2733 25.2929L16.8591 26.7071ZM19.3591 27.7929L16.8591 30.2929L18.2733 31.7071L20.7733 29.2071L19.3591 27.7929Z" fill="#E4002A"/>
</svg>
