<svg width="72" height="72" viewBox="0 0 72 72" fill="none" xmlns="http://www.w3.org/2000/svg">
<rect width="72" height="72" rx="10" fill="white"/>
<path fill-rule="evenodd" clip-rule="evenodd" d="M20.4785 32.7826C20.5073 24.3014 27.406 17.4494 35.8872 17.4781C44.3684 17.507 51.2204 24.4057 51.1916 32.8869V33.0608C51.0872 38.5739 48.009 43.6695 44.235 47.6521C42.0767 49.8934 39.6665 51.8776 37.0524 53.5652C36.3534 54.1698 35.3166 54.1698 34.6176 53.5652C30.7207 51.0287 27.3004 47.8262 24.5133 44.1043C22.0292 40.8587 20.6188 36.9194 20.4785 32.8347V32.7826Z" stroke="#E4002A" stroke-width="3" stroke-linecap="round" stroke-linejoin="round"/>
<path opacity="0.4" d="M35.8358 38C38.554 38 40.7575 35.7964 40.7575 33.0782C40.7575 30.36 38.554 28.1565 35.8358 28.1565C33.1176 28.1565 30.9141 30.36 30.9141 33.0782C30.9141 35.7964 33.1176 38 35.8358 38Z" stroke="#E4002A" stroke-width="3" stroke-linecap="round" stroke-linejoin="round"/>
</svg>
