<svg width="20" height="20" viewBox="0 0 20 20" fill="none" xmlns="http://www.w3.org/2000/svg">
<path fill-rule="evenodd" clip-rule="evenodd" d="M11.6127 1.36101C10.6814 0.574938 9.31896 0.574939 8.38765 1.36101L7.53949 2.0769C7.14365 2.411 6.65381 2.61391 6.13766 2.65756L5.03171 2.75108C3.81734 2.85378 2.85397 3.81715 2.75127 5.03152L2.65775 6.13747C2.6141 6.65362 2.41119 7.14346 2.07709 7.53931L1.3612 8.38746C0.575129 9.31877 0.57513 10.6812 1.3612 11.6125L2.07709 12.4606C2.41119 12.8565 2.6141 13.3463 2.65775 13.8625L2.75127 14.9685C2.85397 16.1828 3.81734 17.1462 5.03171 17.2488L6.13766 17.3423C6.65381 17.3861 7.14365 17.589 7.5395 17.9231L8.38765 18.639C9.31896 19.425 10.6814 19.425 11.6127 18.639L12.4608 17.9231C12.8567 17.589 13.3465 17.3861 13.8627 17.3423L14.9687 17.2488C16.183 17.1462 17.1464 16.1828 17.249 14.9685L17.3425 13.8625C17.3863 13.3463 17.5892 12.8565 17.9233 12.4606L18.6392 11.6125C19.4252 10.6812 19.4252 9.31877 18.6392 8.38746L17.9233 7.5393C17.5892 7.14346 17.3863 6.65362 17.3425 6.13747L17.249 5.03152C17.1464 3.81715 16.183 2.85378 14.9687 2.75108L13.8627 2.65756C13.3465 2.61391 12.8567 2.411 12.4608 2.0769L11.6127 1.36101Z" fill="#23B053"/>
<path d="M14.2715 7.77148L8.77148 12.7715L6.27148 10.4988" stroke="white" stroke-width="1.5" stroke-linecap="round" stroke-linejoin="round"/>
</svg>
